<svg xmlns="http://www.w3.org/2000/svg" viewBox="0 0 1024 1024">
  <defs>
    <linearGradient id="bg5d" x1="120" y1="80" x2="904" y2="944" gradientUnits="userSpaceOnUse">
      <stop offset="0" stop-color="#334256"/><stop offset="1" stop-color="#17202C"/>
    </linearGradient>
    <linearGradient id="warm5d" x1="222" y1="0" x2="650" y2="0" gradientUnits="userSpaceOnUse">
      <stop offset="0" stop-color="#F2A06F"/><stop offset="1" stop-color="#F6C47B"/>
    </linearGradient>
    <linearGradient id="cool5d" x1="222" y1="0" x2="730" y2="0" gradientUnits="userSpaceOnUse">
      <stop offset="0" stop-color="#62B8E8"/><stop offset="1" stop-color="#78DBD0"/>
    </linearGradient>
    <filter id="shadow5d" x="-20%" y="-20%" width="140%" height="150%">
      <feDropShadow dx="0" dy="24" stdDeviation="32" flood-color="#08101A" flood-opacity=".38"/>
    </filter>
    <clipPath id="warmClip5d"><rect x="238" y="330" width="492" height="156" rx="52"/></clipPath>
    <clipPath id="coolClip5d"><rect x="238" y="578" width="492" height="156" rx="52"/></clipPath>
  </defs>
  <rect x="32" y="32" width="960" height="960" rx="232" fill="url(#bg5d)" filter="url(#shadow5d)"/>
  <!-- 위 배터리 (웜/Claude) -->
  <rect x="770" y="362" width="60" height="92" rx="28" fill="#FFF8EE"/>
  <rect x="194" y="290" width="600" height="236" rx="82" fill="#17202C" stroke="#FFF8EE" stroke-width="32"/>
  <rect x="238" y="330" width="492" height="156" rx="52" fill="#FFFFFF" fill-opacity=".10"/>
  <path d="M238 330 H520 C500 356 546 380 524 408 C506 432 548 458 528 486 H238 Z"
        fill="url(#warm5d)" clip-path="url(#warmClip5d)"/>
  <!-- 아래 배터리 (쿨/Codex) -->
  <rect x="770" y="610" width="60" height="92" rx="28" fill="#FFF8EE"/>
  <rect x="194" y="538" width="600" height="236" rx="82" fill="#17202C" stroke="#FFF8EE" stroke-width="32"/>
  <rect x="238" y="578" width="492" height="156" rx="52" fill="#FFFFFF" fill-opacity=".10"/>
  <path d="M238 578 H612 C592 604 638 628 616 656 C598 680 640 706 620 734 H238 Z"
        fill="url(#cool5d)" clip-path="url(#coolClip5d)"/>
  <!-- 하이라이트 -->
  <path d="M282 356H474M282 604H556" stroke="#FFFFFF" stroke-opacity=".24" stroke-width="16" stroke-linecap="round"/>
  <!-- f2식 오목한 4점 스파크 + 작은 방울 -->
  <path d="M790 148 C797 208 823 234 883 242 C823 250 797 276 790 336 C783 276 757 250 697 242 C757 234 783 208 790 148Z"
        fill="#FFD764" stroke="#FFF8EE" stroke-width="18" stroke-linejoin="round"/>
  <circle cx="694" cy="170" r="17" fill="#F2A06F"/>
</svg>
